<svg height="300px" width="300px" fill="#1A1A1A" xmlns="http://www.w3.org/2000/svg" viewBox="0 0 64 64" x="0px" y="0px"><g><path d="M25.889,48.555a.989.989,0,0,0-.393-.423,15.553,15.553,0,0,1-7.371-9.347l1.43-.953a1,1,0,0,0,.277-1.387l-2-3a1,1,0,0,0-1.387-.277l-.268.179-1.2-5.558a1,1,0,0,0-1.515-.633l-1.674,1.066-3-3.838a1,1,0,0,0-1.3-.241l-5,3a1,1,0,0,0-.346,1.365l2.509,4.258-2.185,1.39a1,1,0,0,0,.019,1.7l5.207,3.151-.244.162a1,1,0,0,0-.277,1.387l2,3a1,1,0,0,0,1.387.277l1.312-.875A22.978,22.978,0,0,1,15,53.975a1,1,0,0,0,.11.47l2,4a1,1,0,0,0,1.38.427l9-5a1,1,0,0,0,.41-1.321ZM4.365,28.347l3.392-2.035L10.093,29.3l-3.757,2.39ZM4.9,34.979l8.429-5.365,1.063,4.925L9.526,37.781Zm5.381,6.634-.89-1.336,7.336-4.89.89,1.336Zm6.65,10.728a24.944,24.944,0,0,0-3.389-10.5l2.835-1.89a17.329,17.329,0,0,0,6.669,8.99Zm1.5,4.277-1.105-2.209,7.25-4.028,1.105,2.21Z"/><path d="M61,10l-6.923,0-9.81-.755L37.5,5.3a4.006,4.006,0,0,0-4.845.628l-.6.6-1.271-.695a3,3,0,0,0-3.543.509A2.961,2.961,0,0,0,27.824,11H25a3,3,0,0,0,0,6h9l-1.6,1.2a1,1,0,0,0-.377,1.017l1.74,7.828a.971.971,0,0,0-.733,1.2l1,4a1,1,0,0,0,1.212.728,2.832,2.832,0,0,1,2.3.1,1.02,1.02,0,0,1,.251.277l-2.184.73c-2.919,1.251-4.725,2.869-5.369,4.81a4.821,4.821,0,0,0-.246,1.465l-.572-.264a1,1,0,0,0-1.251.353l-2,3a1,1,0,0,0,.413,1.463l13,6A.984.984,0,0,0,40,51a1,1,0,0,0,.833-.445l2-3a1,1,0,0,0-.413-1.463l-1.091-.5c3.959-4.959,4.129-9.625,3.413-12.915L52.612,24.8,59.266,21H61a1,1,0,0,0,1-1V11A1,1,0,0,0,61,10ZM34.071,7.343a2,2,0,0,1,2.423-.315l3.66,2.135-2.332.519L33.884,7.53Zm-5.416.416a.989.989,0,0,1,1.17-.168l5.032,2.75-2.727.606L28.912,9.338a.987.987,0,0,1-.257-1.579ZM39.643,48.733,28.48,43.582l.877-1.315L40.52,47.418Zm-.19-4.01-7.317-3.377a2.854,2.854,0,0,1,.012-1.864c.463-1.339,1.932-2.571,4.168-3.534l3-1A1,1,0,0,0,40,34a3.317,3.317,0,0,0-1.218-2.492,3.973,3.973,0,0,0-3.041-.664l-.5-2.011,5.266-.752-.212.212A3.12,3.12,0,0,0,42.5,33.619a3.164,3.164,0,0,0,.362-.034C43.557,37.444,42.429,41.184,39.453,44.723ZM38.145,21.365,42.351,18H46v4.586l-4.029,4.029c-.121-.157-.206-.26-.213-.268a1,1,0,0,0-.9-.337l-1.332.19ZM60,19H59a1,1,0,0,0-.5.132l-7,4a.975.975,0,0,0-.211.161l-8,8a1.121,1.121,0,0,1-1.586-1.586l6-6A1,1,0,0,0,48,23V17a1,1,0,0,0-1-1H42a1,1,0,0,0-.625.219l-5,4a1,1,0,0,0-.337,1.055l1.489,5.211-1.783.255-1.628-7.327,6.439-4.581-1.11-1.664L36.7,15H25a1,1,0,0,1,0-2h7a1.052,1.052,0,0,0,.217-.023l8.854-1.968L54,12h6Z"/><path d="M27,36c0-3.149,3.114-4,3.247-4.031L30,31l-.242-.97A6.256,6.256,0,0,0,25,36Z"/><path d="M23.03,30.758l1.94.484A4.266,4.266,0,0,1,29.006,28L29,26A6.229,6.229,0,0,0,23.03,30.758Z"/><path d="M47.05,44.311a6.314,6.314,0,0,1-.882,5.134l1.664,1.11a8.33,8.33,0,0,0,1.116-6.871Z"/><path d="M50.28,41.694c.067.072,1.6,1.785.74,6.11l1.96.392c1.093-5.462-1.175-7.806-1.273-7.9Z"/></g></svg>