<svg height="300px" width="300px" fill="#FFFFFF" xmlns="http://www.w3.org/2000/svg" xmlns:xlink="http://www.w3.org/1999/xlink" version="1.1" x="0px" y="0px" viewBox="0 0 100 100" style="enable-background:new 0 0 100 100;" xml:space="preserve"><path d="M70.4,21.9L61.4,5l-3.3,5.3c-0.2-0.1-0.5-0.2-0.8-0.3c-0.6-0.3-1.4-0.5-2.2-0.8s-1.7-0.5-2.7-0.7  c-0.5-0.1-1-0.2-1.5-0.3c-0.1,0-0.3,0-0.4-0.1h-0.2h-0.1H50c-0.1,0-0.2,0-0.3,0s-0.2,0-0.4,0c-0.3,0-0.6,0-0.9,0c-0.3,0-0.6,0-0.9,0  c-0.6,0-1.2,0.1-1.7,0.1c-1.2,0.1-2.3,0.4-3.4,0.7c-2.2,0.6-4.3,1.7-6,2.8c-0.9,0.6-1.7,1.2-2.4,1.9c-0.7,0.6-1.3,1.3-1.9,1.9  c-0.1,0.2-0.3,0.3-0.4,0.5c-0.1,0.2-0.2,0.3-0.3,0.5c-0.2,0.3-0.4,0.6-0.6,0.9c-0.4,0.6-0.6,1.1-0.8,1.5c-0.2,0.4-0.3,0.8-0.4,1  s-0.1,0.4-0.1,0.4s0.1-0.1,0.3-0.2c0.2-0.1,0.5-0.3,0.9-0.6c0.4-0.2,0.9-0.5,1.4-0.8c0.3-0.1,0.6-0.3,0.9-0.4c0.3-0.1,0.6-0.3,1-0.4  c0.7-0.3,1.4-0.6,2.2-0.9s1.6-0.6,2.4-0.8c0.8-0.2,1.7-0.5,2.6-0.6c0.9-0.2,1.7-0.3,2.6-0.4c0.9-0.1,1.7-0.1,2.6-0.1  c0.4,0,0.8,0,1.2,0c0.2,0,0.4,0,0.6,0c0.2,0,0.3,0,0.5,0.1c0.1,0,0.2,0,0.3,0s0.2,0,0.3,0h0.2h0.1c0,0,0.1,0-0.1,0l0,0l0,0l0,0  c0.1,0,0.2,0,0.3,0c0.4,0.1,0.8,0.1,1.1,0.2c0.7,0.2,1.4,0.3,2.1,0.5c0.4,0.1,0.8,0.2,1.2,0.4l-3.1,5L70.4,21.9z M69.2,80.6  c-0.4,0.2-0.9,0.5-1.4,0.8c-0.3,0.1-0.6,0.3-0.9,0.4s-0.6,0.3-1,0.4c-0.7,0.3-1.4,0.6-2.2,0.9s-1.6,0.6-2.4,0.8  c-0.8,0.2-1.7,0.5-2.6,0.6c-0.9,0.2-1.7,0.3-2.6,0.4C55.2,85,54.4,85,53.5,85c-0.4,0-0.8,0-1.2,0c-0.2,0-0.4,0-0.6,0  c-0.2,0-0.3,0-0.5-0.1c-0.1,0-0.2,0-0.3,0s-0.2,0-0.3,0h-0.2h-0.1c0,0-0.1,0,0.1,0l0,0l0,0l0,0c-0.1,0-0.2,0-0.3,0  c-0.4-0.1-0.8-0.1-1.1-0.2c-0.7-0.2-1.4-0.3-2.1-0.5c-0.4-0.1-0.8-0.2-1.2-0.4l3.1-5l-19.2-0.6l9,16.8l3.3-5.3  c0.2,0.1,0.5,0.2,0.8,0.3c0.6,0.3,1.4,0.5,2.2,0.8s1.7,0.5,2.7,0.7c0.5,0.1,1,0.2,1.5,0.3c0.1,0,0.3,0,0.4,0.1h0.2h0.1H50  c0.1,0,0.2,0,0.3,0s0.2,0,0.4,0c0.3,0,0.6,0,0.9,0c0.3,0,0.6,0,0.9,0c0.6,0,1.2-0.1,1.7-0.1c1.2-0.1,2.3-0.4,3.4-0.7  c2.2-0.6,4.3-1.7,6-2.8c0.9-0.6,1.7-1.2,2.4-1.9c0.7-0.6,1.3-1.3,1.9-1.9c0.1-0.2,0.3-0.3,0.4-0.5s0.2-0.3,0.3-0.5  c0.2-0.3,0.4-0.6,0.6-0.9c0.4-0.6,0.6-1.1,0.8-1.5c0.2-0.4,0.3-0.8,0.4-1s0.1-0.4,0.1-0.4s-0.1,0.1-0.3,0.2  C69.9,80.2,69.6,80.4,69.2,80.6z M32.6,68.3v3.1c0,0.8-0.6,1.4-1.4,1.4h-5.9H14.6h-6c-0.8,0-1.4-0.6-1.4-1.4v-3.1  c0-0.8,0.4-1.9,1-2.5c0,0,3.8-4.3,5.9-10c0.2-0.5,0.4-1,0.5-1.5v-3.4h-2.2c-0.8,0-1.4-0.6-1.4-1.4v-3.1c0-0.8,0.6-1.4,1.4-1.4h15.1  c0.8,0,1.4,0.6,1.4,1.4v3.1c0,0.8-0.6,1.4-1.4,1.4h-2.2v3.3c0.2,0.5,0.3,1.1,0.5,1.6c2.1,5.7,5.9,9.9,5.9,9.9  C32.1,66.4,32.6,67.5,32.6,68.3z M19.9,40.6c3.4,0,6.2-2.8,6.2-6.2s-2.8-6.2-6.2-6.2s-6.2,2.8-6.2,6.2  C13.6,37.8,16.4,40.6,19.9,40.6z M92.6,37.7c-0.5,1.5-1.6,2.5-3,2.8L89,40.6l-8,23.2h2.1c0.5,0,0.9,0.4,0.9,0.9v2.6h4.3  c0.5,0,0.9,0.4,0.9,0.9V72c0,0.5-0.4,0.9-0.9,0.9H47.2c-0.5,0-0.9-0.4-0.9-0.9v-3.8c0-0.5,0.4-0.9,0.9-0.9h4.3v-2.6  c0-0.5,0.4-0.9,0.9-0.9h2.1l-8-23.2L46,40.5c-1.4-0.3-2.6-1.4-3-2.8c-0.7-2.2,0.5-4.7,2.7-5.4s4.7,0.5,5.4,2.7  c0.5,1.6,0,3.4-1.2,4.5l3.8,5.4l1.9-9.3C54.1,35,53,33.7,52.8,32c-0.2-2.4,1.5-4.5,3.8-4.7c2.4-0.2,4.5,1.5,4.7,3.8  c0.2,1.7-0.7,3.3-2.1,4.1l3.6,8.4l3.1-10c-0.2-0.1-0.4-0.2-0.5-0.3c-1.2-0.8-1.9-2.1-1.9-3.6c0-2.4,1.9-4.3,4.3-4.3l0,0  c2.4,0,4.3,1.9,4.3,4.3c0,1.5-0.8,2.8-1.9,3.6c-0.2,0.1-0.3,0.2-0.5,0.3l3.1,10l3.6-8.4c-1.4-0.8-2.2-2.4-2.1-4.1  c0.2-2.4,2.4-4.1,4.7-3.8c2.4,0.2,4.1,2.4,3.8,4.7c-0.2,1.7-1.3,3.1-2.9,3.6l1.9,9.3l3.8-5.4c-1.2-1.1-1.7-2.8-1.2-4.5  c0.7-2.2,3.1-3.5,5.4-2.7C92.1,33,93.3,35.4,92.6,37.7z"/></svg>